<?xml version="1.0" encoding="UTF-8"?>
<svg id="Layer_5" data-name="Layer 5" xmlns="http://www.w3.org/2000/svg" viewBox="0 0 1437.79 469.5">
  <defs>
    <style>
      .cls-1 {
        fill: #fff;
      }

      .cls-2 {
        fill: #ff6c10;
      }

      .cls-3 {
        fill: #ff6c10;
      }
    </style>
  </defs>
  <path class="cls-1" d="M530.37,88.98c-1.31-4.82-3.73-8.66-8.44-8.66-3.62,0-5.92,2.08-5.92,5.37,0,13.92,31.34,12.06,31.34,38.36,0,14.25-9.97,22.36-25.43,22.36s-22.46-6.69-24.99-21.37l16.88-3.18c.76,6.14,3.29,9.86,8.87,9.86,4.06,0,7.13-2.08,7.13-6.36,0-14.58-31.46-12.6-31.46-39.02,0-12.28,8.87-20.6,23.23-20.6s21.48,7.56,24.44,19.95l-15.67,3.29h0Z"/>
  <path class="cls-1" d="M607.01,145.43l-2.96-16.99h-14.91l-2.74,16.99h-18.64l16.88-78.69h23.89l17.32,78.69h-18.85ZM591.67,112.88h9.76l-4.83-28.28h-.33l-4.6,28.28h0Z"/>
  <path class="cls-1" d="M661.51,145.43l-18.08-78.69h19.83l8.77,52.06h.22l9.64-52.06h19.62l-18.53,78.69h-21.48,0Z"/>
  <path class="cls-1" d="M728.4,145.43v-78.69h44.16v15.89h-25.86v14.69h19.4v15.45h-19.4v16.77h26.85v15.89h-45.15Z"/>
  <path class="cls-1" d="M803.51,145.43v-78.69h21.81c21.27,0,32.11,10.3,32.11,38.25,0,25.32-8.55,40.44-31.78,40.44h-22.13,0ZM826.63,128.88c8.66,0,12.06-7.89,12.06-23.56,0-17.21-4.38-22.03-12.16-22.03h-4.28v45.59h4.38Z"/>
  <path class="cls-1" d="M932.12,145.43v-78.69h22.58c19.07,0,27.4,6.25,27.4,20.82,0,7.89-3.51,13.59-10.2,16.55v.22c7.68,2.63,11.84,8.11,11.84,17.97,0,18.85-12.93,23.13-28.93,23.13h-22.69ZM955.68,97.97c4.93,0,7.78-2.41,7.78-8.33,0-5.59-3.18-7.23-7.78-7.23h-5.59v15.56h5.59ZM956.12,129.76c6.69,0,8.99-2.74,8.99-8.88,0-6.69-3.62-8.88-8.88-8.88h-6.13v17.76h6.03,0Z"/>
  <path class="cls-1" d="M1023.99,145.43v-30.47l-19.51-48.22h19.29l9.32,27.95h.22l9.87-27.95h19.07l-19.73,48.22v30.47h-18.53Z"/>
  <path class="cls-1" d="M479.01,357.45h121.4c15.02,0,15.64-9.7,15.64-15.02,0-7.51-3.75-13.77-16.89-17.83l-85.74-25.66c-28.47-8.45-36.92-30.66-36.92-61.33,0-32.85,14.39-55.38,50.69-55.38h135.17v43.8h-113.27c-8.14,0-15.34,3.13-15.34,14.4,0,8.45,4.38,14.39,17.52,18.46l76.97,22.53c32.54,9.38,45.37,25.66,45.37,61.64s-12.83,58.2-50.06,58.2h-144.56v-43.8h0Z"/>
  <path class="cls-1" d="M694,401.25v-185.23c0-23.47,12.83-33.79,33.17-33.79h116.4c48.5,0,59.14,30.35,59.14,74.16s-10.64,74.78-59.14,74.78h-93.24v70.09h-56.32,0ZM814.47,287.36c23.46,0,30.66-9.08,30.66-30.98s-7.2-30.35-30.66-30.35h-49.44c-10.95,0-14.71,3.76-14.71,14.71v46.62h64.14Z"/>
  <path class="cls-1" d="M1149.61,291.74c0,91.37-30.35,112.02-116.39,112.02s-116.4-20.65-116.4-112.02,30.35-112.02,116.4-112.02,116.39,20.96,116.39,112.02ZM1033.21,359.95c45.68,0,58.83-16.58,58.83-68.21s-13.15-68.21-58.83-68.21-58.83,16.58-58.83,68.21,13.14,68.21,58.83,68.21Z"/>
  <path class="cls-1" d="M1235.69,401.25v-175.22h-81.35v-43.8h219.03v43.8h-81.35v175.22h-56.32Z"/>
  <path class="cls-2" d="M86.1,196.07c-1.05-.82-1.33-2.27-.63-3.41,11.15-18.26,56.59-85.86,117.39-85.86,49.64,0,90.49,33.4,110.41,53.31,1.24,1.24,2.88,1.92,4.63,1.92s3.38-.68,4.63-1.91l16.46-16.33c.97-.97,1.06-2.5.17-3.55-5.12-6.08-15.35-17.23-29.85-28.25-31.71-24.11-67.53-36.34-106.46-36.34-79.46,0-129.96,75.53-142.5,96.61-.81,1.36-2.61,1.66-3.85.68L1.01,129.3c-1.01-.8-1.31-2.19-.69-3.32,5.94-10.79,23.01-39.45,48.53-63.73C91.66,21.52,144.07,0,200.45,0s109.29,18.96,154.06,54.84c27.31,21.88,45.51,43.21,51.37,50.43.85,1.05.74,2.54-.22,3.49l-12.29,12.17c-1.1,1.09-2.86,1.03-3.84-.16-7.34-8.88-26.21-30.58-49.74-49.27-41.18-32.7-88.06-49.29-139.33-49.29s-96.55,18.65-135.55,55.43c-20.9,19.72-30.39,34.16-35.63,42.36-.73,1.14-.47,2.63.59,3.47l16.69,13.22c1.15.92,2.6,1.42,4.07,1.42,2.17,0,4.2-1.07,5.43-2.86,7.37-10.71,15.9-20.61,26.84-31.16,34.34-33.14,75.83-50.65,119.98-50.65,92.05,0,151.39,70.77,165.44,89.45.79,1.05.68,2.51-.26,3.44l-49.84,49.37c-1.07,1.06-2.81,1.02-3.8-.11-15.91-18.09-63.09-66.57-111.54-66.57-23.64,0-46.67,11.28-68.46,33.53-7.18,7.33-13.91,15.57-19.94,24.41-.79,1.15-.53,2.74.56,3.6l93.23,73.32c1.14.9,1.34,2.55.44,3.69l-10.48,13.33c-.9,1.14-2.55,1.34-3.69.44l-108.42-85.26h0Z"/>
  <path class="cls-3" d="M206.32,469.5c-56.02,0-109.3-18.96-154.06-54.84-27.31-21.88-45.51-43.21-51.37-50.43-.85-1.05-.74-2.54.22-3.49l12.29-12.17c1.1-1.09,2.86-1.03,3.84.16,7.34,8.88,26.22,30.58,49.74,49.27,41.18,32.7,88.05,49.29,139.33,49.29s96.55-18.65,135.55-55.43c20.89-19.7,30.39-34.16,35.63-42.36.73-1.14.47-2.63-.59-3.47l-16.68-13.22c-1.15-.92-2.6-1.42-4.07-1.42-2.17,0-4.2,1.07-5.43,2.86-7.36,10.7-15.89,20.6-26.84,31.16-34.34,33.14-75.83,50.65-119.98,50.65-92.05,0-151.39-70.77-165.44-89.45-.79-1.05-.68-2.51.26-3.44l49.84-49.37c1.07-1.06,2.81-1.02,3.8.11,15.91,18.09,63.09,66.57,111.54,66.57,23.64,0,46.67-11.28,68.45-33.53,7.18-7.34,13.91-15.57,19.95-24.41.79-1.15.53-2.74-.56-3.6l-93.23-73.32c-1.14-.9-1.34-2.55-.44-3.69l10.48-13.33c.9-1.14,2.55-1.34,3.69-.44l108.42,85.26c1.05.83,1.33,2.27.63,3.41-11.16,18.27-56.59,85.86-117.39,85.86-49.64,0-90.49-33.4-110.42-53.31-1.24-1.24-2.88-1.92-4.62-1.92s-3.38.68-4.63,1.91l-16.46,16.33c-.97.97-1.06,2.49-.18,3.55,5.11,6.07,15.33,17.22,29.85,28.25,31.71,24.11,67.53,36.34,106.46,36.34,79.46,0,129.95-75.53,142.49-96.61.81-1.36,2.61-1.66,3.85-.68l55.5,43.63c1.02.8,1.31,2.19.69,3.32-5.94,10.79-23,39.45-48.53,63.73-42.8,40.72-95.22,62.25-151.59,62.25h0Z"/>
  <path class="cls-1" d="M1417.4,181.45c11.19,0,20.38,8.45,20.38,19.37s-8.93,19.44-20.38,19.44-20.12-8.22-20.12-19.44,8.9-19.37,20.12-19.37ZM1417.4,215.94c8.86,0,15.95-6.31,15.95-15.13s-7.17-15.2-15.95-15.2-15.65,6.49-15.65,15.2,6.83,15.13,15.65,15.13ZM1413.35,210.61h-4.39v-19.82h9.2c4.28,0,7.58,2.85,7.58,7.02,0,2.51-1.46,4.8-3.56,6.01l4.69,6.79h-5.26l-3.87-5.78h-4.39v5.78ZM1413.35,194.51v6.61h4.84c1.84,0,2.96-1.5,2.96-3.3,0-1.99-1.2-3.3-2.96-3.3h-4.84Z"/>
</svg>